<svg width="174" height="31" viewBox="0 0 174 31" fill="none" xmlns="http://www.w3.org/2000/svg">
<g clip-path="url(#clip0_5_2426)">
<path d="M17.1066 5.00154L19.2994 9.3872C19.5984 9.99771 20.3958 10.5833 21.0686 10.6954L25.0431 11.3558C27.5848 11.7794 28.1829 13.6234 26.3514 15.4424L23.2615 18.5323C22.7382 19.0556 22.4516 20.0648 22.6136 20.7874L23.4982 24.6124C24.1959 27.6401 22.5887 28.8112 19.9099 27.2289L16.1846 25.0236C15.5118 24.6249 14.4029 24.6249 13.7176 25.0236L9.99232 27.2289C7.32604 28.8112 5.70633 27.6276 6.40405 24.6124L7.28866 20.7874C7.45063 20.0648 7.16407 19.0556 6.64078 18.5323L3.55087 15.4424C1.73182 13.6234 2.3174 11.7794 4.8591 11.3558L8.83361 10.6954C9.49395 10.5833 10.2913 9.99771 10.5904 9.3872L12.7832 5.00154C13.9793 2.62181 15.9229 2.62181 17.1066 5.00154Z" stroke="#D4A80A" stroke-width="1.86889" stroke-linecap="round" stroke-linejoin="round"/>
<path d="M54.6215 6.2764L56.55 10.1335C56.813 10.6704 57.5143 11.1854 58.106 11.2841L61.6015 11.8648C63.8369 12.2374 64.3628 13.8591 62.7521 15.4589L60.0346 18.1764C59.5743 18.6367 59.3223 19.5242 59.4648 20.1598L60.2428 23.5238C60.8564 26.1865 59.4428 27.2165 57.0869 25.8249L53.8106 23.8854C53.2189 23.5347 52.2437 23.5347 51.641 23.8854L48.3646 25.8249C46.0197 27.2165 44.5952 26.1755 45.2088 23.5238L45.9868 20.1598C46.1293 19.5242 45.8772 18.6367 45.417 18.1764L42.6995 15.4589C41.0997 13.8591 41.6147 12.2374 43.8501 11.8648L47.3456 11.2841C47.9263 11.1854 48.6276 10.6704 48.8906 10.1335L50.8192 6.2764C51.8711 4.18348 53.5805 4.18348 54.6215 6.2764Z" stroke="#D4A80A" stroke-width="1.64365" stroke-linecap="round" stroke-linejoin="round"/>
<path d="M90.5941 6.2764L92.5227 10.1335C92.7857 10.6704 93.487 11.1854 94.0787 11.2841L97.5742 11.8648C99.8095 12.2374 100.336 13.8591 98.7247 15.4589L96.0072 18.1764C95.547 18.6367 95.295 19.5242 95.4374 20.1598L96.2154 23.5238C96.829 26.1865 95.4155 27.2165 93.0596 25.8249L89.7833 23.8854C89.1915 23.5347 88.2163 23.5347 87.6136 23.8854L84.3373 25.8249C81.9924 27.2165 80.5679 26.1755 81.1815 23.5238L81.9595 20.1598C82.1019 19.5242 81.8499 18.6367 81.3897 18.1764L78.6722 15.4589C77.0724 13.8591 77.5874 12.2374 79.8227 11.8648L83.3182 11.2841C83.899 11.1854 84.6003 10.6704 84.8633 10.1335L86.7918 6.2764C87.8438 4.18348 89.5531 4.18348 90.5941 6.2764Z" stroke="#D4A80A" stroke-width="1.64365" stroke-linecap="round" stroke-linejoin="round"/>
<path d="M126.567 6.2764L128.495 10.1335C128.758 10.6704 129.46 11.1854 130.051 11.2841L133.547 11.8648C135.782 12.2374 136.308 13.8591 134.697 15.4589L131.98 18.1764C131.52 18.6367 131.268 19.5242 131.41 20.1598L132.188 23.5238C132.802 26.1865 131.388 27.2165 129.032 25.8249L125.756 23.8854C125.164 23.5347 124.189 23.5347 123.586 23.8854L120.31 25.8249C117.965 27.2165 116.541 26.1755 117.154 23.5238L117.932 20.1598C118.075 19.5242 117.823 18.6367 117.362 18.1764L114.645 15.4589C113.045 13.8591 113.56 12.2374 115.795 11.8648L119.291 11.2841C119.872 11.1854 120.573 10.6704 120.836 10.1335L122.764 6.2764C123.816 4.18348 125.526 4.18348 126.567 6.2764Z" stroke="#D4A80A" stroke-width="1.64365" stroke-linecap="round" stroke-linejoin="round"/>
<path d="M162.539 6.2764L164.468 10.1335C164.731 10.6704 165.432 11.1854 166.024 11.2841L169.519 11.8648C171.755 12.2374 172.281 13.8591 170.67 15.4589L167.953 18.1764C167.492 18.6367 167.24 19.5242 167.383 20.1598L168.161 23.5238C168.774 26.1865 167.361 27.2165 165.005 25.8249L161.729 23.8854C161.137 23.5347 160.162 23.5347 159.559 23.8854L156.283 25.8249C153.938 27.2165 152.513 26.1755 153.127 23.5238L153.905 20.1598C154.047 19.5242 153.795 18.6367 153.335 18.1764L150.617 15.4589C149.018 13.8591 149.533 12.2374 151.768 11.8648L155.264 11.2841C155.844 11.1854 156.546 10.6704 156.809 10.1335L158.737 6.2764C159.789 4.18348 161.498 4.18348 162.539 6.2764Z" stroke="#D4A80A" stroke-width="1.64365" stroke-linecap="round" stroke-linejoin="round"/>
</g>
<defs>
<clipPath id="clip0_5_2426">
<rect width="173.793" height="29.9023" fill="white" transform="translate(0 0.628326)"/>
</clipPath>
</defs>
</svg>
