<svg width="118" height="16" viewBox="0 0 118 16" fill="none" xmlns="http://www.w3.org/2000/svg">
<path d="M9.06859 1.80948L10.3669 4.40602C10.5439 4.76009 11.016 5.11416 11.4094 5.17318L13.7601 5.56659C15.2649 5.82231 15.6189 6.9042 14.5371 7.98609L12.7077 9.82531C12.4028 10.1302 12.2257 10.7302 12.3241 11.1629L12.8454 13.4349C13.2585 15.2249 12.3044 15.9232 10.7209 14.9889L8.51781 13.6808C8.11456 13.4447 7.46542 13.4447 7.06217 13.6808L4.84921 14.979C3.26572 15.9134 2.31169 15.2151 2.72477 13.4251L3.24605 11.1531C3.3444 10.7302 3.16736 10.1302 2.86247 9.81547L1.04292 7.99593C-0.0389691 6.91404 0.315104 5.82231 1.81992 5.57643L4.17057 5.18301C4.56399 5.11416 5.03608 4.76993 5.21312 4.41585L6.51139 1.81931C7.2097 0.403019 8.37028 0.403019 9.06859 1.80948Z" fill="#ACACAC"/>
<path d="M34.6366 1.80948L35.9349 4.40602C36.1119 4.76009 36.584 5.11416 36.9775 5.17318L39.3281 5.56659C40.8329 5.82231 41.187 6.9042 40.1051 7.98609L38.2757 9.82531C37.9708 10.1302 37.7938 10.7302 37.8922 11.1629L38.4134 13.4349C38.8265 15.2249 37.8725 15.9232 36.289 14.9889L34.0859 13.6808C33.6826 13.4447 33.0335 13.4447 32.6302 13.6808L30.4173 14.979C28.8338 15.9134 27.8797 15.2151 28.2928 13.4251L28.8141 11.1531C28.9125 10.7302 28.7354 10.1302 28.4305 9.81547L26.611 7.99593C25.5291 6.91404 25.8832 5.82231 27.388 5.57643L29.7386 5.18301C30.132 5.11416 30.6041 4.76993 30.7812 4.41585L32.0794 1.81931C32.7778 0.403019 33.9383 0.403019 34.6366 1.80948Z" fill="#ACACAC"/>
<path d="M60.2047 1.80948L61.503 4.40602C61.68 4.76009 62.1521 5.11416 62.5455 5.17318L64.8962 5.56659C66.401 5.82231 66.7551 6.9042 65.6732 7.98609L63.8438 9.82531C63.5389 10.1302 63.3619 10.7302 63.4602 11.1629L63.9815 13.4349C64.3946 15.2249 63.4405 15.9232 61.857 14.9889L59.6539 13.6808C59.2507 13.4447 58.6015 13.4447 58.1983 13.6808L55.9853 14.979C54.4018 15.9134 53.4478 15.2151 53.8609 13.4251L54.3822 11.1531C54.4805 10.7302 54.3035 10.1302 53.9986 9.81547L52.179 7.99593C51.0971 6.91404 51.4512 5.82231 52.956 5.57643L55.3067 5.18301C55.7001 5.11416 56.1722 4.76993 56.3492 4.41585L57.6475 1.81931C58.3458 0.403019 59.5064 0.403019 60.2047 1.80948Z" fill="#ACACAC"/>
<path d="M85.7728 1.80948L87.0711 4.40602C87.2481 4.76009 87.7202 5.11416 88.1136 5.17318L90.4643 5.56659C91.9691 5.82231 92.3232 6.9042 91.2413 7.98609L89.4119 9.82531C89.107 10.1302 88.93 10.7302 89.0283 11.1629L89.5496 13.4349C89.9627 15.2249 89.0086 15.9232 87.4252 14.9889L85.222 13.6808C84.8188 13.4447 84.1696 13.4447 83.7664 13.6808L81.5534 14.979C79.9699 15.9134 79.0159 15.2151 79.429 13.4251L79.9503 11.1531C80.0486 10.7302 79.8716 10.1302 79.5667 9.81547L77.7471 7.99593C76.6653 6.91404 77.0193 5.82231 78.5241 5.57643L80.8748 5.18301C81.2682 5.11416 81.7403 4.76993 81.9173 4.41585L83.2156 1.81931C83.9139 0.403019 85.0745 0.403019 85.7728 1.80948Z" fill="#ACACAC"/>
<path d="M111.341 1.80948L112.639 4.40602C112.816 4.76009 113.288 5.11416 113.682 5.17318L116.032 5.56659C117.537 5.82231 117.891 6.9042 116.809 7.98609L114.98 9.82531C114.675 10.1302 114.498 10.7302 114.596 11.1629L115.118 13.4349C115.531 15.2249 114.577 15.9232 112.993 14.9889L110.79 13.6808C110.387 13.4447 109.738 13.4447 109.334 13.6808L107.121 14.979C105.538 15.9134 104.584 15.2151 104.997 13.4251L105.518 11.1531C105.617 10.7302 105.44 10.1302 105.135 9.81547L103.315 7.99593C102.233 6.91404 102.587 5.82231 104.092 5.57643L106.443 5.18301C106.836 5.11416 107.308 4.76993 107.485 4.41585L108.784 1.81931C109.482 0.403019 110.643 0.403019 111.341 1.80948Z" fill="#ACACAC"/>
</svg>
